<svg width="14" height="16" viewBox="0 0 14 16" fill="none" xmlns="http://www.w3.org/2000/svg">
<path d="M13 7H0.96875C0.4375 7 0 7.46875 0 8C0 8.5625 0.4375 9 0.96875 9H12.9688C13.5312 9 14 8.5625 14 8C14 7.46875 13.5312 7 13 7ZM13 12H0.96875C0.4375 12 0 12.4688 0 13C0 13.5 0.4375 14 0.96875 14H12.9688C13.5312 14 14 13.5625 14 13C14 12.4688 13.5312 12 13 12ZM13 2H0.96875C0.4375 2 0 2.46875 0 3C0 3.5 0.4375 4 0.96875 4H12.9688C13.5312 4 14 3.5625 14 3C14 2.46875 13.5312 2 13 2Z" fill="white"/>
</svg>
