<svg width="22" height="16" viewBox="0 0 22 16" fill="none" xmlns="http://www.w3.org/2000/svg">
<path d="M2.77294 13V1.56H6.45294C7.7756 1.56 8.81027 1.85867 9.55694 2.456C10.3143 3.04267 10.6929 3.92267 10.6929 5.096V5.16C10.6929 6.32267 10.3143 7.19733 9.55694 7.784C8.7996 8.36 7.78094 8.648 6.50094 8.648H4.90094V13H2.77294ZM4.90094 7.112H6.45294C7.15694 7.112 7.69027 6.94667 8.05294 6.616C8.42627 6.27467 8.61294 5.78933 8.61294 5.16V5.096C8.61294 3.83733 7.89294 3.208 6.45294 3.208H4.90094V7.112ZM14.8109 13V3.24H11.6269V1.56H20.1389V3.24H16.9549V13H14.8109Z" fill="white"/>
</svg>
